<svg width="46" height="47" viewBox="0 0 46 47" fill="none" xmlns="http://www.w3.org/2000/svg">
<path d="M44.3219 20.6244L41.483 23.5L44.3219 26.3755C44.3515 26.4055 44.418 26.4654 44.5215 26.5552C44.625 26.6451 44.6989 26.72 44.7433 26.7799C44.7876 26.8398 44.8542 26.9147 44.9429 27.0046C45.0316 27.0944 45.0981 27.1693 45.1425 27.2292C45.1869 27.2891 45.2386 27.364 45.2978 27.4539C45.3569 27.5437 45.4013 27.6261 45.4308 27.701C45.4604 27.7759 45.4826 27.8508 45.4974 27.9256C45.5121 28.0005 45.5047 28.0754 45.4752 28.1503C45.4456 28.2252 45.4013 28.2926 45.3421 28.3525L43.4348 30.2845C43.3756 30.3444 43.3091 30.3893 43.2351 30.4193C43.1612 30.4493 43.0873 30.4567 43.0134 30.4418C42.9394 30.4268 42.8655 30.4043 42.7916 30.3744C42.7177 30.3444 42.6363 30.2995 42.5476 30.2396C42.4589 30.1797 42.385 30.1272 42.3258 30.0823C42.2667 30.0374 42.1928 29.97 42.104 29.8801L41.8823 29.6555L41.6605 29.4308L41.483 29.2511L38.6442 26.3755L35.8054 29.2511L35.6723 29.3859C34.7556 30.3145 34.1346 30.614 33.8093 30.2845L31.9019 28.3525C31.8428 28.2626 31.7984 28.1728 31.7689 28.0829C31.7393 27.993 31.7467 27.8957 31.791 27.7908C31.8354 27.686 31.8798 27.5887 31.9241 27.4988C31.9685 27.4089 32.0424 27.3041 32.1459 27.1843C32.2494 27.0645 32.3381 26.9746 32.412 26.9147C32.486 26.8548 32.5895 26.7574 32.7225 26.6226L32.9665 26.3755L35.8054 23.5L32.9665 20.6244L32.7669 20.4222L32.5451 20.1975L32.3455 19.9729L32.1237 19.7258L31.9463 19.5011L31.8132 19.254L31.7467 19.0293L31.7689 18.8047L31.9019 18.6025L33.8093 16.6705C33.8684 16.6106 33.935 16.5656 34.0089 16.5357C34.0828 16.5057 34.1567 16.4982 34.2307 16.5132C34.3046 16.5282 34.3785 16.5506 34.4525 16.5806C34.5264 16.6106 34.6077 16.6555 34.6964 16.7154C34.7851 16.7753 34.8665 16.8352 34.9404 16.8951C35.0143 16.955 35.0956 17.0299 35.1844 17.1198C35.2731 17.2096 35.347 17.277 35.4061 17.322C35.4653 17.3669 35.5392 17.4418 35.6279 17.5466C35.7166 17.6515 35.7758 17.7188 35.8054 17.7488L38.6442 20.6244L41.483 17.7488C41.5126 17.6889 41.5939 17.599 41.727 17.4792C41.8601 17.3594 41.9562 17.2621 42.0153 17.1872C42.0745 17.1123 42.1632 17.0224 42.2815 16.9176C42.3998 16.8127 42.5033 16.7379 42.592 16.6929C42.6807 16.648 42.7768 16.6031 42.8803 16.5581C42.9838 16.5132 43.0799 16.4982 43.1686 16.5132C43.2573 16.5282 43.346 16.5806 43.4348 16.6705L45.3421 18.6025C45.6674 18.932 45.3717 19.561 44.455 20.4896L44.3219 20.6244ZM25.3371 45.9654L14.4696 35.0022V11.9527L25.3371 1.03453C26.2242 0.135915 27.3479 0.360569 28.7082 1.70849V45.2914C27.3775 46.6393 26.2538 46.864 25.3371 45.9654ZM0.275391 32.1267V14.8283C0.275391 14.0495 0.556318 13.3755 1.11817 12.8064C1.68003 12.2373 2.34538 11.9527 3.11424 11.9527H11.6308V35.0022H3.11424C2.34538 35.0022 1.68003 34.7252 1.11817 34.171C0.556318 33.6169 0.275391 32.9354 0.275391 32.1267Z" fill="white"/>
</svg>
